<svg width="164" height="166" viewBox="0 0 164 166" fill="none" xmlns="http://www.w3.org/2000/svg">
<path d="M0 20C0 8.95431 8.95431 0 20 0H140C151.046 0 160 8.95431 160 20V140C160 151.046 151.046 160 140 160H20C8.95431 160 0 151.046 0 140V20Z" fill="#062541"/>
<rect x="23" y="21" width="34" height="119" rx="5" fill="url(#paint0_linear_2_2)"/>
<rect x="103" y="21" width="34" height="119" rx="5" fill="url(#paint1_linear_2_2)"/>
<rect x="63" y="21" width="34" height="119" rx="5" fill="url(#paint2_linear_2_2)"/>
<g filter="url(#filter0_d_2_2)">
<path d="M124.919 147.291C124.391 148 123.27 147.726 123.129 146.854L116.956 108.67C116.822 107.844 117.701 107.229 118.431 107.637L152.1 126.439C152.866 126.866 152.75 128.001 151.915 128.266L139.832 132.091C139.156 132.305 138.911 133.134 139.362 133.681L153.035 150.256C153.398 150.696 153.32 151.35 152.864 151.692L148.742 154.787C148.314 155.108 147.71 155.036 147.37 154.624L133.508 137.82C133.095 137.319 132.322 137.339 131.934 137.859L124.919 147.291Z" fill="black"/>
<path d="M117.624 104.935L115.805 103.919C115.075 103.511 114.196 104.126 114.33 104.951L121.532 149.499L121.906 151.815C122.047 152.687 123.168 152.961 123.696 152.252L125.124 150.331L132.013 141.07C132.4 140.55 133.174 140.53 133.587 141.031L146.419 156.587L147.035 157.333C147.375 157.746 147.979 157.818 148.406 157.497L149.194 156.905L155.705 152.017C156.161 151.675 156.239 151.021 155.876 150.581L155.261 149.836L142.742 134.659C142.291 134.113 142.536 133.284 143.212 133.07L154.732 129.422L156.831 128.758C157.666 128.494 157.782 127.359 157.016 126.932L117.624 104.935Z" stroke="white" stroke-width="4"/>
</g>
<g filter="url(#filter1_d_2_2)">
<path d="M124.919 147.291C124.391 148 123.27 147.726 123.129 146.854L116.956 108.67C116.822 107.844 117.701 107.229 118.431 107.637L152.1 126.439C152.866 126.866 152.75 128.001 151.915 128.266L139.832 132.091C139.156 132.305 138.911 133.134 139.362 133.681L153.035 150.256C153.398 150.696 153.32 151.35 152.864 151.692L148.742 154.787C148.314 155.108 147.71 155.036 147.37 154.624L133.508 137.82C133.095 137.319 132.322 137.339 131.934 137.859L124.919 147.291Z" fill="#091E42"/>
<path d="M117.624 104.935L115.805 103.919C115.075 103.511 114.196 104.126 114.33 104.951L121.532 149.499L121.906 151.815C122.047 152.687 123.168 152.961 123.696 152.252L125.124 150.331L132.013 141.07C132.4 140.55 133.174 140.53 133.587 141.031L146.419 156.587L147.035 157.333C147.375 157.746 147.979 157.818 148.406 157.497L149.194 156.905L155.705 152.017C156.161 151.675 156.239 151.021 155.876 150.581L155.261 149.836L142.742 134.659C142.291 134.113 142.536 133.284 143.212 133.07L154.732 129.422L156.831 128.758C157.666 128.494 157.782 127.359 157.016 126.932L117.624 104.935Z" stroke="white" stroke-width="4"/>
</g>
<g filter="url(#filter2_d_2_2)">
<path d="M28.4041 125.82C27.8589 126.516 26.7452 126.214 26.626 125.338L21.4085 87.0114C21.2957 86.183 22.189 85.5901 22.9086 86.0159L56.0982 105.653C56.8524 106.1 56.7087 107.231 55.8669 107.475L43.6922 110.997C43.0115 111.194 42.7459 112.017 43.183 112.574L56.4378 129.486C56.7896 129.935 56.6954 130.586 56.231 130.917L52.0323 133.909C51.597 134.219 50.9947 134.132 50.665 133.711L37.2273 116.566C36.8269 116.055 36.0533 116.055 35.653 116.566L28.4041 125.82Z" fill="black"/>
<path d="M22.1699 83.2944L20.3762 82.2331C19.6566 81.8074 18.7634 82.4002 18.8762 83.2287L24.9632 127.942L25.2796 130.267C25.3989 131.142 26.5126 131.444 27.0577 130.748L28.5336 128.864L35.6515 119.778C36.0518 119.267 36.8254 119.267 37.2258 119.778L49.6653 135.65L50.2623 136.411C50.592 136.832 51.1943 136.919 51.6296 136.609L52.4321 136.037L59.0627 131.313C59.5271 130.982 59.6213 130.331 59.2695 129.882L58.6736 129.122L46.5375 113.637C46.1004 113.079 46.366 112.257 47.0466 112.06L58.6549 108.701L60.769 108.09C61.6108 107.846 61.7545 106.715 61.0004 106.269L22.1699 83.2944Z" stroke="white" stroke-width="4"/>
</g>
<g filter="url(#filter3_d_2_2)">
<path d="M28.4041 125.82C27.8589 126.516 26.7452 126.214 26.626 125.338L21.4085 87.0114C21.2957 86.183 22.189 85.5901 22.9086 86.0159L56.0982 105.653C56.8524 106.1 56.7087 107.231 55.8669 107.475L43.6922 110.997C43.0115 111.194 42.7459 112.017 43.183 112.574L56.4378 129.486C56.7896 129.935 56.6954 130.586 56.231 130.917L52.0323 133.909C51.597 134.219 50.9947 134.132 50.665 133.711L37.2273 116.566C36.8269 116.055 36.0533 116.055 35.653 116.566L28.4041 125.82Z" fill="#091E42"/>
<path d="M22.1699 83.2944L20.3762 82.2331C19.6566 81.8074 18.7634 82.4002 18.8762 83.2287L24.9632 127.942L25.2796 130.267C25.3989 131.142 26.5126 131.444 27.0577 130.748L28.5336 128.864L35.6515 119.778C36.0518 119.267 36.8254 119.267 37.2258 119.778L49.6653 135.65L50.2623 136.411C50.592 136.832 51.1943 136.919 51.6296 136.609L52.4321 136.037L59.0627 131.313C59.5271 130.982 59.6213 130.331 59.2695 129.882L58.6736 129.122L46.5375 113.637C46.1004 113.079 46.366 112.257 47.0466 112.06L58.6549 108.701L60.769 108.09C61.6108 107.846 61.7545 106.715 61.0004 106.269L22.1699 83.2944Z" stroke="white" stroke-width="4"/>
</g>
<rect x="80" y="52" width="2" height="18" fill="#5AADFF"/>
<rect x="81" y="86" width="2" height="18" fill="#5AADFF"/>
<rect x="53" y="79" width="2" height="21" transform="rotate(-90 53 79)" fill="#5AADFF"/>
<rect x="103.586" y="63" width="2" height="18" transform="rotate(59.9831 103.586 63)" fill="#5AADFF"/>
<rect x="119.083" y="94.6032" width="2" height="32.2493" transform="rotate(114.949 119.083 94.6032)" fill="#5AADFF"/>
<circle cx="81.5" cy="77.5" r="8.5" stroke="#5AADFF" stroke-width="2"/>
<circle cx="81" cy="52" r="6" fill="#5AADFF"/>
<circle cx="81.5" cy="77.5" r="5.5" fill="#5AADFF"/>
<circle cx="82" cy="103" r="6" fill="#5AADFF"/>
<circle cx="119" cy="96" r="6" fill="#5AADFF"/>
<circle cx="50" cy="78" r="6" fill="#5AADFF"/>
<circle cx="105" cy="63" r="6" fill="#5AADFF"/>
<defs>
<filter id="filter0_d_2_2" x="108.315" y="99.7847" width="55.2145" height="65.9125" filterUnits="userSpaceOnUse" color-interpolation-filters="sRGB">
<feFlood flood-opacity="0" result="BackgroundImageFix"/>
<feColorMatrix in="SourceAlpha" type="matrix" values="0 0 0 0 0 0 0 0 0 0 0 0 0 0 0 0 0 0 127 0" result="hardAlpha"/>
<feOffset dy="2"/>
<feGaussianBlur stdDeviation="2"/>
<feColorMatrix type="matrix" values="0 0 0 0 0 0 0 0 0 0 0 0 0 0 0 0 0 0 0.24 0"/>
<feBlend mode="normal" in2="BackgroundImageFix" result="effect1_dropShadow_2_2"/>
<feBlend mode="normal" in="SourceGraphic" in2="effect1_dropShadow_2_2" result="shape"/>
</filter>
<filter id="filter1_d_2_2" x="108.315" y="99.7847" width="55.2145" height="65.9125" filterUnits="userSpaceOnUse" color-interpolation-filters="sRGB">
<feFlood flood-opacity="0" result="BackgroundImageFix"/>
<feColorMatrix in="SourceAlpha" type="matrix" values="0 0 0 0 0 0 0 0 0 0 0 0 0 0 0 0 0 0 127 0" result="hardAlpha"/>
<feOffset dy="2"/>
<feGaussianBlur stdDeviation="2"/>
<feColorMatrix type="matrix" values="0 0 0 0 0 0 0 0 0 0 0 0 0 0 0 0 0 0 0.24 0"/>
<feBlend mode="normal" in2="BackgroundImageFix" result="effect1_dropShadow_2_2"/>
<feBlend mode="normal" in="SourceGraphic" in2="effect1_dropShadow_2_2" result="shape"/>
</filter>
<filter id="filter2_d_2_2" x="12.8653" y="78.0869" width="54.6266" height="66.7078" filterUnits="userSpaceOnUse" color-interpolation-filters="sRGB">
<feFlood flood-opacity="0" result="BackgroundImageFix"/>
<feColorMatrix in="SourceAlpha" type="matrix" values="0 0 0 0 0 0 0 0 0 0 0 0 0 0 0 0 0 0 127 0" result="hardAlpha"/>
<feOffset dy="2"/>
<feGaussianBlur stdDeviation="2"/>
<feColorMatrix type="matrix" values="0 0 0 0 0 0 0 0 0 0 0 0 0 0 0 0 0 0 0.24 0"/>
<feBlend mode="normal" in2="BackgroundImageFix" result="effect1_dropShadow_2_2"/>
<feBlend mode="normal" in="SourceGraphic" in2="effect1_dropShadow_2_2" result="shape"/>
</filter>
<filter id="filter3_d_2_2" x="12.8653" y="78.0869" width="54.6266" height="66.7078" filterUnits="userSpaceOnUse" color-interpolation-filters="sRGB">
<feFlood flood-opacity="0" result="BackgroundImageFix"/>
<feColorMatrix in="SourceAlpha" type="matrix" values="0 0 0 0 0 0 0 0 0 0 0 0 0 0 0 0 0 0 127 0" result="hardAlpha"/>
<feOffset dy="2"/>
<feGaussianBlur stdDeviation="2"/>
<feColorMatrix type="matrix" values="0 0 0 0 0 0 0 0 0 0 0 0 0 0 0 0 0 0 0.24 0"/>
<feBlend mode="normal" in2="BackgroundImageFix" result="effect1_dropShadow_2_2"/>
<feBlend mode="normal" in="SourceGraphic" in2="effect1_dropShadow_2_2" result="shape"/>
</filter>
<linearGradient id="paint0_linear_2_2" x1="40" y1="21" x2="40" y2="140" gradientUnits="userSpaceOnUse">
<stop stop-color="#0356C4" stop-opacity="0.8"/>
<stop offset="1" stop-color="#0007FF" stop-opacity="0.3"/>
</linearGradient>
<linearGradient id="paint1_linear_2_2" x1="120" y1="21" x2="120" y2="140" gradientUnits="userSpaceOnUse">
<stop stop-color="#0356C4" stop-opacity="0.8"/>
<stop offset="1" stop-color="#0007FF" stop-opacity="0.3"/>
</linearGradient>
<linearGradient id="paint2_linear_2_2" x1="80" y1="21" x2="80" y2="140" gradientUnits="userSpaceOnUse">
<stop stop-color="#0356C4" stop-opacity="0.8"/>
<stop offset="1" stop-color="#0007FF" stop-opacity="0.3"/>
</linearGradient>
</defs>
</svg>
