<svg width="180" height="276" viewBox="0 0 180 276" fill="none" xmlns="http://www.w3.org/2000/svg">
<path d="M0 20C0 8.95431 8.95431 0 20 0H140C151.046 0 160 8.95431 160 20V140C160 151.046 151.046 160 140 160H20C8.95431 160 0 151.046 0 140V20Z" fill="#062541"/>
<rect x="23" y="21" width="34" height="119" rx="5" fill="url(#paint0_linear_2_2)"/>
<rect x="103" y="21" width="34" height="119" rx="5" fill="url(#paint1_linear_2_2)"/>
<rect x="63" y="21" width="34" height="119" rx="5" fill="url(#paint2_linear_2_2)"/>
<g filter="url(#filter0_d_2_2)">
<path d="M124.919 147.291C124.391 148 123.27 147.727 123.129 146.854L116.956 108.67C116.822 107.844 117.701 107.229 118.431 107.637L152.1 126.439C152.866 126.866 152.75 128.001 151.915 128.266L139.832 132.091C139.156 132.305 138.911 133.134 139.362 133.681L153.035 150.256C153.398 150.696 153.32 151.35 152.864 151.692L148.742 154.787C148.314 155.108 147.71 155.036 147.37 154.624L133.508 137.82C133.095 137.319 132.322 137.339 131.934 137.859L124.919 147.291Z" fill="black"/>
<path d="M117.624 104.935L115.805 103.919C115.075 103.511 114.196 104.126 114.33 104.951L121.532 149.499L121.906 151.815C122.047 152.687 123.168 152.961 123.696 152.252L125.124 150.331L132.013 141.07C132.4 140.55 133.174 140.53 133.587 141.031L146.419 156.587L147.035 157.333C147.375 157.746 147.979 157.818 148.406 157.497L149.194 156.905L155.705 152.017C156.161 151.675 156.239 151.021 155.876 150.581L155.261 149.836L142.742 134.659C142.291 134.113 142.536 133.284 143.212 133.07L154.732 129.422L156.831 128.758C157.666 128.494 157.782 127.359 157.016 126.932L117.624 104.935Z" stroke="white" stroke-width="4"/>
</g>
<g filter="url(#filter1_d_2_2)">
<path d="M124.919 147.291C124.391 148 123.27 147.727 123.129 146.854L116.956 108.67C116.822 107.844 117.701 107.229 118.431 107.637L152.1 126.439C152.866 126.866 152.75 128.001 151.915 128.266L139.832 132.091C139.156 132.305 138.911 133.134 139.362 133.681L153.035 150.256C153.398 150.696 153.32 151.35 152.864 151.692L148.742 154.787C148.314 155.108 147.71 155.036 147.37 154.624L133.508 137.82C133.095 137.319 132.322 137.339 131.934 137.859L124.919 147.291Z" fill="#091E42"/>
<path d="M117.624 104.935L115.805 103.919C115.075 103.511 114.196 104.126 114.33 104.951L121.532 149.499L121.906 151.815C122.047 152.687 123.168 152.961 123.696 152.252L125.124 150.331L132.013 141.07C132.4 140.55 133.174 140.53 133.587 141.031L146.419 156.587L147.035 157.333C147.375 157.746 147.979 157.818 148.406 157.497L149.194 156.905L155.705 152.017C156.161 151.675 156.239 151.021 155.876 150.581L155.261 149.836L142.742 134.659C142.291 134.113 142.536 133.284 143.212 133.07L154.732 129.422L156.831 128.758C157.666 128.494 157.782 127.359 157.016 126.932L117.624 104.935Z" stroke="white" stroke-width="4"/>
</g>
<g filter="url(#filter2_d_2_2)">
<path d="M28.4041 125.82C27.8589 126.516 26.7452 126.214 26.626 125.338L21.4085 87.0114C21.2957 86.183 22.189 85.5901 22.9086 86.0159L56.0982 105.653C56.8524 106.099 56.7087 107.231 55.8669 107.475L43.6922 110.997C43.0115 111.194 42.7459 112.017 43.183 112.574L56.4378 129.486C56.7896 129.935 56.6954 130.586 56.231 130.917L52.0323 133.909C51.597 134.219 50.9947 134.132 50.665 133.711L37.2273 116.566C36.8269 116.055 36.0533 116.055 35.653 116.566L28.4041 125.82Z" fill="black"/>
<path d="M22.1699 83.2944L20.3762 82.2331C19.6566 81.8074 18.7634 82.4002 18.8762 83.2287L24.9632 127.942L25.2796 130.267C25.3989 131.142 26.5126 131.444 27.0577 130.748L28.5336 128.864L35.6515 119.778C36.0518 119.267 36.8254 119.267 37.2258 119.778L49.6653 135.65L50.2623 136.411C50.592 136.832 51.1943 136.919 51.6296 136.609L52.4321 136.037L59.0627 131.313C59.5271 130.982 59.6213 130.331 59.2695 129.882L58.6736 129.122L46.5375 113.637C46.1004 113.079 46.366 112.257 47.0466 112.06L58.6549 108.701L60.769 108.09C61.6108 107.846 61.7545 106.715 61.0004 106.268L22.1699 83.2944Z" stroke="white" stroke-width="4"/>
</g>
<g filter="url(#filter3_d_2_2)">
<path d="M28.4041 125.82C27.8589 126.516 26.7452 126.214 26.626 125.338L21.4085 87.0114C21.2957 86.183 22.189 85.5901 22.9086 86.0159L56.0982 105.653C56.8524 106.099 56.7087 107.231 55.8669 107.475L43.6922 110.997C43.0115 111.194 42.7459 112.017 43.183 112.574L56.4378 129.486C56.7896 129.935 56.6954 130.586 56.231 130.917L52.0323 133.909C51.597 134.219 50.9947 134.132 50.665 133.711L37.2273 116.566C36.8269 116.055 36.0533 116.055 35.653 116.566L28.4041 125.82Z" fill="#091E42"/>
<path d="M22.1699 83.2944L20.3762 82.2331C19.6566 81.8074 18.7634 82.4002 18.8762 83.2287L24.9632 127.942L25.2796 130.267C25.3989 131.142 26.5126 131.444 27.0577 130.748L28.5336 128.864L35.6515 119.778C36.0518 119.267 36.8254 119.267 37.2258 119.778L49.6653 135.65L50.2623 136.411C50.592 136.832 51.1943 136.919 51.6296 136.609L52.4321 136.037L59.0627 131.313C59.5271 130.982 59.6213 130.331 59.2695 129.882L58.6736 129.122L46.5375 113.637C46.1004 113.079 46.366 112.257 47.0466 112.06L58.6549 108.701L60.769 108.09C61.6108 107.846 61.7545 106.715 61.0004 106.268L22.1699 83.2944Z" stroke="white" stroke-width="4"/>
</g>
<rect x="80" y="52" width="2" height="18" fill="#5AADFF"/>
<rect x="81" y="86" width="2" height="18" fill="#5AADFF"/>
<rect x="53" y="79" width="2" height="21" transform="rotate(-90 53 79)" fill="#5AADFF"/>
<rect x="103.586" y="63" width="2" height="18" transform="rotate(59.9831 103.586 63)" fill="#5AADFF"/>
<rect x="119.083" y="94.6032" width="2" height="32.2493" transform="rotate(114.949 119.083 94.6032)" fill="#5AADFF"/>
<circle cx="81.5" cy="77.5" r="8.5" stroke="#5AADFF" stroke-width="2"/>
<circle cx="81" cy="52" r="6" fill="#5AADFF"/>
<circle cx="81.5" cy="77.5" r="5.5" fill="#5AADFF"/>
<circle cx="82" cy="103" r="6" fill="#5AADFF"/>
<circle cx="119" cy="96" r="6" fill="#5AADFF"/>
<circle cx="50" cy="78" r="6" fill="#5AADFF"/>
<circle cx="105" cy="63" r="6" fill="#5AADFF"/>
<path d="M16.2102 205.864H22.483L25.6364 209.92L28.7386 213.534L34.5852 220.864H27.6989L23.6761 215.92L21.6136 212.989L16.2102 205.864ZM35.1136 200.545C35.1136 204.352 34.392 207.591 32.9489 210.261C31.517 212.932 29.5625 214.972 27.0852 216.381C24.6193 217.778 21.8466 218.477 18.767 218.477C15.6648 218.477 12.8807 217.773 10.4148 216.364C7.94886 214.955 6 212.915 4.56818 210.244C3.13636 207.574 2.42045 204.341 2.42045 200.545C2.42045 196.739 3.13636 193.5 4.56818 190.83C6 188.159 7.94886 186.125 10.4148 184.727C12.8807 183.318 15.6648 182.614 18.767 182.614C21.8466 182.614 24.6193 183.318 27.0852 184.727C29.5625 186.125 31.517 188.159 32.9489 190.83C34.392 193.5 35.1136 196.739 35.1136 200.545ZM27.6307 200.545C27.6307 198.08 27.2614 196 26.5227 194.307C25.7955 192.614 24.767 191.33 23.4375 190.455C22.108 189.58 20.5511 189.142 18.767 189.142C16.983 189.142 15.4261 189.58 14.0966 190.455C12.767 191.33 11.733 192.614 10.9943 194.307C10.267 196 9.90341 198.08 9.90341 200.545C9.90341 203.011 10.267 205.091 10.9943 206.784C11.733 208.477 12.767 209.761 14.0966 210.636C15.4261 211.511 16.983 211.949 18.767 211.949C20.5511 211.949 22.108 211.511 23.4375 210.636C24.767 209.761 25.7955 208.477 26.5227 206.784C27.2614 205.091 27.6307 203.011 27.6307 200.545ZM57.2344 206.852V191.818H64.4957V218H57.5241V213.244H57.2514C56.6605 214.778 55.6776 216.011 54.3026 216.943C52.9389 217.875 51.2741 218.341 49.3082 218.341C47.5582 218.341 46.0185 217.943 44.6889 217.148C43.3594 216.352 42.3196 215.222 41.5696 213.756C40.831 212.29 40.456 210.534 40.4446 208.489V191.818H47.706V207.193C47.7173 208.739 48.1321 209.96 48.9503 210.858C49.7685 211.756 50.8651 212.205 52.2401 212.205C53.1151 212.205 53.9332 212.006 54.6946 211.608C55.456 211.199 56.0696 210.597 56.5355 209.801C57.0128 209.006 57.2457 208.023 57.2344 206.852ZM70.304 218V191.818H77.5653V218H70.304ZM73.9517 188.443C72.8722 188.443 71.946 188.085 71.1733 187.369C70.4119 186.642 70.0312 185.773 70.0312 184.761C70.0312 183.761 70.4119 182.903 71.1733 182.188C71.946 181.46 72.8722 181.097 73.9517 181.097C75.0313 181.097 75.9517 181.46 76.7131 182.188C77.4858 182.903 77.8722 183.761 77.8722 184.761C77.8722 185.773 77.4858 186.642 76.7131 187.369C75.9517 188.085 75.0313 188.443 73.9517 188.443ZM95.2116 218.511C92.5298 218.511 90.223 217.943 88.2912 216.807C86.3707 215.659 84.8935 214.068 83.8594 212.034C82.8366 210 82.3253 207.659 82.3253 205.011C82.3253 202.33 82.8423 199.977 83.8764 197.955C84.9219 195.92 86.4048 194.335 88.3253 193.199C90.2457 192.051 92.5298 191.477 95.1776 191.477C97.4616 191.477 99.4616 191.892 101.178 192.722C102.893 193.551 104.251 194.716 105.251 196.216C106.251 197.716 106.803 199.477 106.905 201.5H100.053C99.8594 200.193 99.348 199.142 98.5185 198.347C97.7003 197.54 96.6264 197.136 95.2969 197.136C94.1719 197.136 93.1889 197.443 92.348 198.057C91.5185 198.659 90.8707 199.54 90.4048 200.699C89.9389 201.858 89.706 203.261 89.706 204.909C89.706 206.58 89.9332 208 90.3878 209.17C90.8537 210.341 91.5071 211.233 92.348 211.847C93.1889 212.46 94.1719 212.767 95.2969 212.767C96.1264 212.767 96.8707 212.597 97.5298 212.256C98.2003 211.915 98.7514 211.42 99.1832 210.773C99.6264 210.114 99.9162 209.324 100.053 208.403H106.905C106.791 210.403 106.246 212.165 105.268 213.688C104.303 215.199 102.967 216.381 101.263 217.233C99.5582 218.085 97.5412 218.511 95.2116 218.511ZM118.134 210.466L118.151 201.756H119.207L127.594 191.818H135.929L124.662 204.977H122.94L118.134 210.466ZM111.554 218V183.091H118.815V218H111.554ZM127.918 218L120.213 206.597L125.054 201.466L136.423 218H127.918Z" fill="#091E42"/>
<path d="M3.03409 264V229.091H10.4148V244.483H10.875L23.4375 229.091H32.2841L19.3295 244.722L32.4375 264H23.608L14.0455 249.648L10.4148 254.08V264H3.03409ZM43.4574 264.494C41.7869 264.494 40.2983 264.205 38.9915 263.625C37.6847 263.034 36.6506 262.165 35.8892 261.017C35.1392 259.858 34.7642 258.415 34.7642 256.688C34.7642 255.233 35.0313 254.011 35.5653 253.023C36.0994 252.034 36.8267 251.239 37.7472 250.636C38.6676 250.034 39.7131 249.58 40.8835 249.273C42.0653 248.966 43.304 248.75 44.5994 248.625C46.1222 248.466 47.3494 248.318 48.2812 248.182C49.2131 248.034 49.8892 247.818 50.3097 247.534C50.7301 247.25 50.9403 246.83 50.9403 246.273V246.17C50.9403 245.091 50.5994 244.256 49.9176 243.665C49.2472 243.074 48.2926 242.778 47.054 242.778C45.7472 242.778 44.7074 243.068 43.9347 243.648C43.1619 244.216 42.6506 244.932 42.4006 245.795L35.6847 245.25C36.0256 243.659 36.696 242.284 37.696 241.125C38.696 239.955 39.9858 239.057 41.5653 238.432C43.1563 237.795 44.9972 237.477 47.0881 237.477C48.5426 237.477 49.9347 237.648 51.2642 237.989C52.6051 238.33 53.7926 238.858 54.8267 239.574C55.8722 240.29 56.696 241.21 57.2983 242.335C57.9006 243.449 58.2017 244.784 58.2017 246.341V264H51.3153V260.369H51.1108C50.6903 261.188 50.1278 261.909 49.4233 262.534C48.7188 263.148 47.8722 263.631 46.8835 263.983C45.8949 264.324 44.7528 264.494 43.4574 264.494ZM45.5369 259.483C46.6051 259.483 47.5483 259.273 48.3665 258.852C49.1847 258.42 49.8267 257.841 50.2926 257.114C50.7585 256.386 50.9915 255.562 50.9915 254.642V251.864C50.7642 252.011 50.4517 252.148 50.054 252.273C49.6676 252.386 49.2301 252.494 48.7415 252.597C48.2528 252.687 47.7642 252.773 47.2756 252.852C46.7869 252.92 46.3438 252.983 45.946 253.04C45.0938 253.165 44.3494 253.364 43.7131 253.636C43.0767 253.909 42.5824 254.278 42.2301 254.744C41.8778 255.199 41.7017 255.767 41.7017 256.449C41.7017 257.438 42.0597 258.193 42.7756 258.716C43.5028 259.227 44.4233 259.483 45.5369 259.483ZM71.0966 248.864V264H63.8352V237.818H70.7557V242.438H71.0625C71.642 240.915 72.6136 239.71 73.9773 238.824C75.3409 237.926 76.9943 237.477 78.9375 237.477C80.7557 237.477 82.3409 237.875 83.6932 238.67C85.0455 239.466 86.0966 240.602 86.8466 242.08C87.5966 243.545 87.9716 245.295 87.9716 247.33V264H80.7102V248.625C80.7216 247.023 80.3125 245.773 79.483 244.875C78.6534 243.966 77.5114 243.511 76.0568 243.511C75.0795 243.511 74.2159 243.722 73.4659 244.142C72.7273 244.562 72.1477 245.176 71.7273 245.983C71.3182 246.778 71.108 247.739 71.0966 248.864ZM93.831 264V229.091H101.092V242.216H101.314C101.632 241.511 102.092 240.795 102.695 240.068C103.308 239.33 104.104 238.716 105.081 238.227C106.07 237.727 107.297 237.477 108.763 237.477C110.672 237.477 112.433 237.977 114.047 238.977C115.661 239.966 116.95 241.46 117.916 243.46C118.882 245.449 119.365 247.943 119.365 250.943C119.365 253.864 118.893 256.33 117.95 258.341C117.018 260.341 115.746 261.858 114.132 262.892C112.53 263.915 110.734 264.426 108.746 264.426C107.337 264.426 106.138 264.193 105.149 263.727C104.172 263.261 103.371 262.676 102.746 261.972C102.121 261.256 101.643 260.534 101.314 259.807H100.99V264H93.831ZM100.939 250.909C100.939 252.466 101.155 253.824 101.587 254.983C102.018 256.142 102.643 257.045 103.462 257.693C104.28 258.33 105.274 258.648 106.445 258.648C107.626 258.648 108.626 258.324 109.445 257.676C110.263 257.017 110.882 256.108 111.303 254.949C111.734 253.778 111.95 252.432 111.95 250.909C111.95 249.398 111.74 248.068 111.32 246.92C110.899 245.773 110.28 244.875 109.462 244.227C108.643 243.58 107.638 243.256 106.445 243.256C105.263 243.256 104.263 243.568 103.445 244.193C102.638 244.818 102.018 245.705 101.587 246.852C101.155 248 100.939 249.352 100.939 250.909ZM131.676 264.494C130.006 264.494 128.517 264.205 127.21 263.625C125.903 263.034 124.869 262.165 124.108 261.017C123.358 259.858 122.983 258.415 122.983 256.688C122.983 255.233 123.25 254.011 123.784 253.023C124.318 252.034 125.045 251.239 125.966 250.636C126.886 250.034 127.932 249.58 129.102 249.273C130.284 248.966 131.523 248.75 132.818 248.625C134.341 248.466 135.568 248.318 136.5 248.182C137.432 248.034 138.108 247.818 138.528 247.534C138.949 247.25 139.159 246.83 139.159 246.273V246.17C139.159 245.091 138.818 244.256 138.136 243.665C137.466 243.074 136.511 242.778 135.273 242.778C133.966 242.778 132.926 243.068 132.153 243.648C131.381 244.216 130.869 244.932 130.619 245.795L123.903 245.25C124.244 243.659 124.915 242.284 125.915 241.125C126.915 239.955 128.205 239.057 129.784 238.432C131.375 237.795 133.216 237.477 135.307 237.477C136.761 237.477 138.153 237.648 139.483 237.989C140.824 238.33 142.011 238.858 143.045 239.574C144.091 240.29 144.915 241.21 145.517 242.335C146.119 243.449 146.42 244.784 146.42 246.341V264H139.534V260.369H139.33C138.909 261.188 138.347 261.909 137.642 262.534C136.938 263.148 136.091 263.631 135.102 263.983C134.114 264.324 132.972 264.494 131.676 264.494ZM133.756 259.483C134.824 259.483 135.767 259.273 136.585 258.852C137.403 258.42 138.045 257.841 138.511 257.114C138.977 256.386 139.21 255.562 139.21 254.642V251.864C138.983 252.011 138.67 252.148 138.273 252.273C137.886 252.386 137.449 252.494 136.96 252.597C136.472 252.687 135.983 252.773 135.494 252.852C135.006 252.92 134.562 252.983 134.165 253.04C133.313 253.165 132.568 253.364 131.932 253.636C131.295 253.909 130.801 254.278 130.449 254.744C130.097 255.199 129.92 255.767 129.92 256.449C129.92 257.438 130.278 258.193 130.994 258.716C131.722 259.227 132.642 259.483 133.756 259.483ZM159.315 248.864V264H152.054V237.818H158.974V242.438H159.281C159.861 240.915 160.832 239.71 162.196 238.824C163.56 237.926 165.213 237.477 167.156 237.477C168.974 237.477 170.56 237.875 171.912 238.67C173.264 239.466 174.315 240.602 175.065 242.08C175.815 243.545 176.19 245.295 176.19 247.33V264H168.929V248.625C168.94 247.023 168.531 245.773 167.702 244.875C166.872 243.966 165.73 243.511 164.276 243.511C163.298 243.511 162.435 243.722 161.685 244.142C160.946 244.562 160.366 245.176 159.946 245.983C159.537 246.778 159.327 247.739 159.315 248.864Z" fill="#091E42"/>
<defs>
<filter id="filter0_d_2_2" x="108.315" y="99.7847" width="55.2145" height="65.9125" filterUnits="userSpaceOnUse" color-interpolation-filters="sRGB">
<feFlood flood-opacity="0" result="BackgroundImageFix"/>
<feColorMatrix in="SourceAlpha" type="matrix" values="0 0 0 0 0 0 0 0 0 0 0 0 0 0 0 0 0 0 127 0" result="hardAlpha"/>
<feOffset dy="2"/>
<feGaussianBlur stdDeviation="2"/>
<feColorMatrix type="matrix" values="0 0 0 0 0 0 0 0 0 0 0 0 0 0 0 0 0 0 0.24 0"/>
<feBlend mode="normal" in2="BackgroundImageFix" result="effect1_dropShadow_2_2"/>
<feBlend mode="normal" in="SourceGraphic" in2="effect1_dropShadow_2_2" result="shape"/>
</filter>
<filter id="filter1_d_2_2" x="108.315" y="99.7847" width="55.2145" height="65.9125" filterUnits="userSpaceOnUse" color-interpolation-filters="sRGB">
<feFlood flood-opacity="0" result="BackgroundImageFix"/>
<feColorMatrix in="SourceAlpha" type="matrix" values="0 0 0 0 0 0 0 0 0 0 0 0 0 0 0 0 0 0 127 0" result="hardAlpha"/>
<feOffset dy="2"/>
<feGaussianBlur stdDeviation="2"/>
<feColorMatrix type="matrix" values="0 0 0 0 0 0 0 0 0 0 0 0 0 0 0 0 0 0 0.24 0"/>
<feBlend mode="normal" in2="BackgroundImageFix" result="effect1_dropShadow_2_2"/>
<feBlend mode="normal" in="SourceGraphic" in2="effect1_dropShadow_2_2" result="shape"/>
</filter>
<filter id="filter2_d_2_2" x="12.8653" y="78.0869" width="54.6266" height="66.7078" filterUnits="userSpaceOnUse" color-interpolation-filters="sRGB">
<feFlood flood-opacity="0" result="BackgroundImageFix"/>
<feColorMatrix in="SourceAlpha" type="matrix" values="0 0 0 0 0 0 0 0 0 0 0 0 0 0 0 0 0 0 127 0" result="hardAlpha"/>
<feOffset dy="2"/>
<feGaussianBlur stdDeviation="2"/>
<feColorMatrix type="matrix" values="0 0 0 0 0 0 0 0 0 0 0 0 0 0 0 0 0 0 0.24 0"/>
<feBlend mode="normal" in2="BackgroundImageFix" result="effect1_dropShadow_2_2"/>
<feBlend mode="normal" in="SourceGraphic" in2="effect1_dropShadow_2_2" result="shape"/>
</filter>
<filter id="filter3_d_2_2" x="12.8653" y="78.0869" width="54.6266" height="66.7078" filterUnits="userSpaceOnUse" color-interpolation-filters="sRGB">
<feFlood flood-opacity="0" result="BackgroundImageFix"/>
<feColorMatrix in="SourceAlpha" type="matrix" values="0 0 0 0 0 0 0 0 0 0 0 0 0 0 0 0 0 0 127 0" result="hardAlpha"/>
<feOffset dy="2"/>
<feGaussianBlur stdDeviation="2"/>
<feColorMatrix type="matrix" values="0 0 0 0 0 0 0 0 0 0 0 0 0 0 0 0 0 0 0.24 0"/>
<feBlend mode="normal" in2="BackgroundImageFix" result="effect1_dropShadow_2_2"/>
<feBlend mode="normal" in="SourceGraphic" in2="effect1_dropShadow_2_2" result="shape"/>
</filter>
<linearGradient id="paint0_linear_2_2" x1="40" y1="21" x2="40" y2="140" gradientUnits="userSpaceOnUse">
<stop stop-color="#0356C4" stop-opacity="0.8"/>
<stop offset="1" stop-color="#0007FF" stop-opacity="0.3"/>
</linearGradient>
<linearGradient id="paint1_linear_2_2" x1="120" y1="21" x2="120" y2="140" gradientUnits="userSpaceOnUse">
<stop stop-color="#0356C4" stop-opacity="0.8"/>
<stop offset="1" stop-color="#0007FF" stop-opacity="0.3"/>
</linearGradient>
<linearGradient id="paint2_linear_2_2" x1="80" y1="21" x2="80" y2="140" gradientUnits="userSpaceOnUse">
<stop stop-color="#0356C4" stop-opacity="0.8"/>
<stop offset="1" stop-color="#0007FF" stop-opacity="0.3"/>
</linearGradient>
</defs>
</svg>
