<svg width="512" height="512" viewBox="0 0 512 512" fill="none" xmlns="http://www.w3.org/2000/svg">
<rect width="512" height="512" rx="24" fill="#0F172A"/>
<rect x="82.5" y="95.5" width="347" height="75" rx="6.5" fill="#EAEAEA" stroke="black" stroke-width="3"/>
<rect x="82.5" y="184.5" width="347" height="75" rx="6.5" fill="#EAEAEA" stroke="black" stroke-width="3"/>
<rect x="97.5" y="273.5" width="347" height="75" rx="6.5" fill="#EAEAEA" stroke="black" stroke-width="3"/>
<path d="M172.736 146.36L170.216 142.972C169.469 143.121 168.741 143.196 168.032 143.196C166.184 143.196 164.485 142.767 162.936 141.908C161.405 141.049 160.183 139.855 159.268 138.324C158.372 136.775 157.924 135.039 157.924 133.116C157.924 131.193 158.372 129.467 159.268 127.936C160.183 126.405 161.405 125.211 162.936 124.352C164.485 123.493 166.184 123.064 168.032 123.064C169.88 123.064 171.569 123.493 173.1 124.352C174.649 125.211 175.863 126.405 176.74 127.936C177.636 129.467 178.084 131.193 178.084 133.116C178.084 134.796 177.739 136.336 177.048 137.736C176.376 139.117 175.433 140.265 174.22 141.18L178.532 146.36H172.736ZM162.824 133.116C162.824 134.852 163.291 136.243 164.224 137.288C165.176 138.315 166.445 138.828 168.032 138.828C169.6 138.828 170.851 138.305 171.784 137.26C172.736 136.215 173.212 134.833 173.212 133.116C173.212 131.38 172.736 129.999 171.784 128.972C170.851 127.927 169.6 127.404 168.032 127.404C166.445 127.404 165.176 127.917 164.224 128.944C163.291 129.971 162.824 131.361 162.824 133.116ZM196.23 127.376V143H191.442V140.872C190.957 141.563 190.294 142.123 189.454 142.552C188.633 142.963 187.718 143.168 186.71 143.168C185.516 143.168 184.461 142.907 183.546 142.384C182.632 141.843 181.922 141.068 181.418 140.06C180.914 139.052 180.662 137.867 180.662 136.504V127.376H185.422V135.86C185.422 136.905 185.693 137.717 186.234 138.296C186.776 138.875 187.504 139.164 188.418 139.164C189.352 139.164 190.089 138.875 190.63 138.296C191.172 137.717 191.442 136.905 191.442 135.86V127.376H196.23ZM202.078 125.752C201.238 125.752 200.547 125.509 200.006 125.024C199.483 124.52 199.222 123.904 199.222 123.176C199.222 122.429 199.483 121.813 200.006 121.328C200.547 120.824 201.238 120.572 202.078 120.572C202.899 120.572 203.571 120.824 204.094 121.328C204.635 121.813 204.906 122.429 204.906 123.176C204.906 123.904 204.635 124.52 204.094 125.024C203.571 125.509 202.899 125.752 202.078 125.752ZM204.458 127.376V143H199.67V127.376H204.458ZM206.975 135.188C206.975 133.564 207.302 132.145 207.955 130.932C208.627 129.719 209.551 128.785 210.727 128.132C211.922 127.479 213.285 127.152 214.815 127.152C216.775 127.152 218.409 127.665 219.715 128.692C221.041 129.719 221.909 131.165 222.319 133.032H217.223C216.794 131.837 215.963 131.24 214.731 131.24C213.854 131.24 213.154 131.585 212.631 132.276C212.109 132.948 211.847 133.919 211.847 135.188C211.847 136.457 212.109 137.437 212.631 138.128C213.154 138.8 213.854 139.136 214.731 139.136C215.963 139.136 216.794 138.539 217.223 137.344H222.319C221.909 139.173 221.041 140.611 219.715 141.656C218.39 142.701 216.757 143.224 214.815 143.224C213.285 143.224 211.922 142.897 210.727 142.244C209.551 141.591 208.627 140.657 207.955 139.444C207.302 138.231 206.975 136.812 206.975 135.188ZM234.429 143L229.669 136.448V143H224.881V122.28H229.669V133.732L234.401 127.376H240.309L233.813 135.216L240.365 143H234.429Z" fill="#0370DE"/>
<path d="M253.585 143L246.977 134.32V143H242.189V123.344H246.977V131.968L253.529 123.344H259.157L251.541 132.976L259.437 143H253.585ZM260.761 135.16C260.761 133.555 261.059 132.145 261.657 130.932C262.273 129.719 263.103 128.785 264.149 128.132C265.194 127.479 266.361 127.152 267.649 127.152C268.75 127.152 269.711 127.376 270.533 127.824C271.373 128.272 272.017 128.86 272.465 129.588V127.376H277.253V143H272.465V140.788C271.998 141.516 271.345 142.104 270.505 142.552C269.683 143 268.722 143.224 267.621 143.224C266.351 143.224 265.194 142.897 264.149 142.244C263.103 141.572 262.273 140.629 261.657 139.416C261.059 138.184 260.761 136.765 260.761 135.16ZM272.465 135.188C272.465 133.993 272.129 133.051 271.457 132.36C270.803 131.669 270.001 131.324 269.049 131.324C268.097 131.324 267.285 131.669 266.613 132.36C265.959 133.032 265.633 133.965 265.633 135.16C265.633 136.355 265.959 137.307 266.613 138.016C267.285 138.707 268.097 139.052 269.049 139.052C270.001 139.052 270.803 138.707 271.457 138.016C272.129 137.325 272.465 136.383 272.465 135.188ZM290.236 127.208C292.066 127.208 293.522 127.805 294.604 129C295.706 130.176 296.256 131.8 296.256 133.872V143H291.496V134.516C291.496 133.471 291.226 132.659 290.684 132.08C290.143 131.501 289.415 131.212 288.5 131.212C287.586 131.212 286.858 131.501 286.316 132.08C285.775 132.659 285.504 133.471 285.504 134.516V143H280.716V127.376H285.504V129.448C285.99 128.757 286.643 128.216 287.464 127.824C288.286 127.413 289.21 127.208 290.236 127.208ZM304.372 129.588C304.82 128.86 305.464 128.272 306.304 127.824C307.144 127.376 308.105 127.152 309.188 127.152C310.476 127.152 311.642 127.479 312.688 128.132C313.733 128.785 314.554 129.719 315.152 130.932C315.768 132.145 316.076 133.555 316.076 135.16C316.076 136.765 315.768 138.184 315.152 139.416C314.554 140.629 313.733 141.572 312.688 142.244C311.642 142.897 310.476 143.224 309.188 143.224C308.086 143.224 307.125 143.009 306.304 142.58C305.482 142.132 304.838 141.544 304.372 140.816V143H299.584V122.28H304.372V129.588ZM311.204 135.16C311.204 133.965 310.868 133.032 310.196 132.36C309.542 131.669 308.73 131.324 307.76 131.324C306.808 131.324 305.996 131.669 305.324 132.36C304.67 133.051 304.344 133.993 304.344 135.188C304.344 136.383 304.67 137.325 305.324 138.016C305.996 138.707 306.808 139.052 307.76 139.052C308.712 139.052 309.524 138.707 310.196 138.016C310.868 137.307 311.204 136.355 311.204 135.16ZM317.636 135.16C317.636 133.555 317.934 132.145 318.532 130.932C319.148 129.719 319.978 128.785 321.024 128.132C322.069 127.479 323.236 127.152 324.524 127.152C325.625 127.152 326.586 127.376 327.408 127.824C328.248 128.272 328.892 128.86 329.34 129.588V127.376H334.128V143H329.34V140.788C328.873 141.516 328.22 142.104 327.38 142.552C326.558 143 325.597 143.224 324.496 143.224C323.226 143.224 322.069 142.897 321.024 142.244C319.978 141.572 319.148 140.629 318.532 139.416C317.934 138.184 317.636 136.765 317.636 135.16ZM329.34 135.188C329.34 133.993 329.004 133.051 328.332 132.36C327.678 131.669 326.876 131.324 325.924 131.324C324.972 131.324 324.16 131.669 323.488 132.36C322.834 133.032 322.508 133.965 322.508 135.16C322.508 136.355 322.834 137.307 323.488 138.016C324.16 138.707 324.972 139.052 325.924 139.052C326.876 139.052 327.678 138.707 328.332 138.016C329.004 137.325 329.34 136.383 329.34 135.188ZM347.111 127.208C348.941 127.208 350.397 127.805 351.479 129C352.581 130.176 353.131 131.8 353.131 133.872V143H348.371V134.516C348.371 133.471 348.101 132.659 347.559 132.08C347.018 131.501 346.29 131.212 345.375 131.212C344.461 131.212 343.733 131.501 343.191 132.08C342.65 132.659 342.379 133.471 342.379 134.516V143H337.591V127.376H342.379V129.448C342.865 128.757 343.518 128.216 344.339 127.824C345.161 127.413 346.085 127.208 347.111 127.208Z" fill="black"/>
<path d="M174.425 430.274L193.862 336L110.413 383.976L152.707 392.9L174.425 430.274Z" stroke="white" stroke-width="6.24" stroke-linecap="round" stroke-linejoin="round"/>
<path d="M462 261.138L372 227L406.138 317L421.655 276.655L462 261.138Z" stroke="white" stroke-width="6.24" stroke-linecap="round" stroke-linejoin="round"/>
</svg>
